<?xml version="1.0" encoding="utf-8"?>
<!-- Generator: Adobe Illustrator 25.1.0, SVG Export Plug-In . SVG Version: 6.00 Build 0)  -->
<svg version="1.1" id="레이어_1" xmlns="http://www.w3.org/2000/svg" xmlns:xlink="http://www.w3.org/1999/xlink" x="0px"
	 y="0px" viewBox="0 0 18 18" style="enable-background:new 0 0 18 18;" xml:space="preserve">
<style type="text/css">
	.st0{fill:#FFFFFF;}
	.st1{fill:none;}
	.st2{fill:#1DB208;}
	.st3{fill:#006802;}
</style>
<g>
	<path class="st0" d="M9,13.4L9,13.4c-2.7,0-4.9-2.2-4.9-4.9V8c0-2.7,2.2-4.9,4.9-4.9h0c2.7,0,4.9,2.2,4.9,4.9v0.5
		C13.9,11.2,11.7,13.4,9,13.4z"/>
</g>
<rect class="st1" width="18" height="18"/>
<g>
	<path class="st2" d="M9,16.9c-3.6-0.9-6.4-4.6-6.4-8.6V4L9,1.2L15.4,4v4.3C15.4,12.2,12.6,15.9,9,16.9z M6.4,12.4L9,10.8l2.6,1.6
		l-0.7-3l2.3-2l-3.1-0.3L9,4.3L7.8,7.1L4.7,7.4l2.3,2L6.4,12.4z"/>
	<path class="st3" d="M9,1.6l6,2.7v4c0,3.8-2.6,7.3-6,8.2C5.6,15.5,3,12,3,8.2v-4L9,1.6 M7.5,6.8l-2,0.2L3.8,7.1l1.3,1.2l1.5,1.3
		l-0.4,1.9l-0.4,1.7l1.5-0.9l1.7-1l1.7,1l1.5,0.9l-0.4-1.7l-0.4-1.9l1.5-1.3l1.3-1.2l-1.8-0.2l-2-0.2L9.7,4.9L9,3.3L8.3,5L7.5,6.8
		 M9,0.8l-6.8,3v4.5c0,4.2,2.9,8.1,6.8,9c3.9-0.9,6.8-4.8,6.8-9V3.8L9,0.8L9,0.8z M6.9,11.6l0.5-2.4L5.6,7.7l2.4-0.2L9,5.2l0.9,2.2
		l2.4,0.2l-1.8,1.6l0.5,2.4L9,10.4L6.9,11.6L6.9,11.6z"/>
</g>
<g>
	<circle class="st0" cx="12" cy="12.1" r="1.4"/>
</g>
<g>
	<path class="st3" d="M13.2,14.6c-0.4,0.2-0.8,0.3-1.2,0.3c-1.6,0-2.8-1.3-2.8-2.8s1.3-2.8,2.8-2.8s2.8,1.3,2.8,2.8
		c0,0.4-0.1,0.8-0.3,1.2l1.6,1.6l-1.4,1.4L13.2,14.6z M12,11.2c-0.5,0-0.8,0.4-0.8,0.8c0,0.5,0.4,0.8,0.8,0.8s0.8-0.4,0.8-0.8
		C12.9,11.6,12.5,11.2,12,11.2z"/>
	<path class="st0" d="M12,9.6c1.4,0,2.4,1.1,2.4,2.4c0,0.5-0.1,0.9-0.3,1.2l1.6,1.6l-0.9,0.9l-1.6-1.6c-0.4,0.2-0.8,0.3-1.2,0.3
		c-1.4,0-2.4-1.1-2.4-2.4C9.6,10.7,10.7,9.6,12,9.6 M12,13.3c0.7,0,1.2-0.6,1.2-1.2c0-0.7-0.6-1.2-1.2-1.2s-1.2,0.6-1.2,1.2
		C10.8,12.8,11.3,13.3,12,13.3 M12,8.9c-1.8,0-3.2,1.4-3.2,3.2c0,1.8,1.4,3.2,3.2,3.2c0.4,0,0.7-0.1,1.1-0.2l1.2,1.2l0.5,0.5
		l0.5-0.5l0.9-0.9l0.5-0.5l-0.5-0.5L15,13.2c0.1-0.3,0.2-0.7,0.2-1.1C15.2,10.3,13.8,8.9,12,8.9L12,8.9z M12,12.6
		c-0.3,0-0.5-0.2-0.5-0.5c0-0.3,0.2-0.5,0.5-0.5c0.3,0,0.5,0.2,0.5,0.5C12.5,12.3,12.3,12.6,12,12.6L12,12.6z"/>
</g>
</svg>
