<?xml version="1.0" encoding="utf-8"?>
<!-- Generator: Adobe Illustrator 25.1.0, SVG Export Plug-In . SVG Version: 6.00 Build 0)  -->
<svg version="1.1" xmlns="http://www.w3.org/2000/svg" xmlns:xlink="http://www.w3.org/1999/xlink" x="0px" y="0px"
	 viewBox="0 0 18 18" style="enable-background:new 0 0 18 18;" xml:space="preserve">
<style type="text/css">
	.st0{display:none;}
	.st1{display:inline;fill:none;}
	.st2{display:inline;}
	.st3{fill:#FFFFFF;}
	.st4{fill:#538EE5;}
	.st5{fill:#235EA5;}
	.st6{fill:none;}
	.st7{fill:#DD3131;}
	.st8{fill:#910C0C;}
</style>
<g id="레이어_1" class="st0">
	<path class="st1" d="M0,0h18v18H0V0z"/>
	<g class="st2">
		<circle class="st3" cx="9" cy="5.5" r="3"/>
	</g>
	<g class="st2">
		<ellipse class="st3" cx="9" cy="5.5" rx="3.3" ry="2.6"/>
	</g>
	<g class="st2">
		<ellipse class="st3" cx="9" cy="11.1" rx="4.7" ry="2.6"/>
	</g>
	<g class="st2">
		<path class="st4" d="M7.5,14.4L7.5,14.4c-2.9-0.8-4.8-3.3-4.8-6.2c0-3.5,2.9-6.4,6.4-6.4c3.5,0,6.4,2.9,6.4,6.4
			c0,2.9-1.9,5.4-4.7,6.2l-0.1,0L9,16L7.5,14.4z M9,8.1c-1.3,0-4.5,0.7-4.5,2.5l0,0.1l0.1,0.1c1,1.5,2.7,2.4,4.4,2.4
			s3.4-0.9,4.4-2.4l0.1-0.1l0-0.1C13.5,8.8,10.3,8.1,9,8.1z M9,3.1c-1.3,0-2.4,1.1-2.4,2.4S7.7,7.9,9,7.9c1.3,0,2.4-1.1,2.4-2.4
			S10.3,3.1,9,3.1z"/>
		<path class="st5" d="M9,2.2c3.3,0,6,2.7,6,6c0,2.7-1.8,5.1-4.5,5.8l-0.2,0.1l-0.1,0.1L9,15.4l-1.2-1.2l-0.1-0.1L7.5,14
			C4.8,13.3,3,11,3,8.2C3,4.9,5.7,2.2,9,2.2 M7.6,7.9C6,8.3,4.1,9.1,4.1,10.6l0,0.2L4.2,11c1.1,1.6,2.8,2.6,4.8,2.6s3.7-1,4.8-2.6
			l0.1-0.2l0-0.2c0-1.5-1.8-2.4-3.4-2.7c0.8-0.5,1.4-1.4,1.4-2.4c0-1.6-1.3-2.8-2.8-2.8S6.2,4,6.2,5.5C6.2,6.5,6.7,7.4,7.6,7.9
			 M9,1.5c-3.7,0-6.8,3-6.8,6.8c0,3.1,2.1,5.8,5,6.5L9,16.5l1.7-1.7c2.9-0.8,5-3.4,5-6.5C15.8,4.5,12.7,1.5,9,1.5L9,1.5z M9,7.6
			c-1.1,0-2.1-0.9-2.1-2.1c0-1.1,0.9-2.1,2.1-2.1s2.1,0.9,2.1,2.1C11.1,6.6,10.1,7.6,9,7.6L9,7.6z M9,12.8c-1.7,0-3.2-0.9-4.1-2.2
			c0-1.4,2.8-2.1,4.1-2.1c1.4,0,4.1,0.8,4.1,2.1C12.2,12,10.7,12.8,9,12.8L9,12.8z"/>
	</g>
</g>
<g id="레이어_2">
	<path class="st6" d="M0,0h18v18H0V0z"/>
	<g>
		<circle class="st3" cx="9" cy="5.5" r="3"/>
	</g>
	<g>
		<ellipse class="st3" cx="9" cy="5.5" rx="3.3" ry="2.6"/>
	</g>
	<g>
		<ellipse class="st3" cx="9" cy="11.1" rx="4.7" ry="2.6"/>
	</g>
	<g>
		<path class="st7" d="M7.5,14.4L7.5,14.4c-2.9-0.8-4.8-3.3-4.8-6.2c0-3.5,2.9-6.4,6.4-6.4c3.5,0,6.4,2.9,6.4,6.4
			c0,2.9-1.9,5.4-4.7,6.2l-0.1,0L9,16L7.5,14.4z M9,8.1c-1.3,0-4.5,0.7-4.5,2.5l0,0.1l0.1,0.1c1,1.5,2.7,2.4,4.4,2.4
			s3.4-0.9,4.4-2.4l0.1-0.1l0-0.1C13.5,8.8,10.3,8.1,9,8.1z M9,3.1c-1.3,0-2.4,1.1-2.4,2.4S7.7,7.9,9,7.9c1.3,0,2.4-1.1,2.4-2.4
			S10.3,3.1,9,3.1z"/>
		<path class="st8" d="M9,2.2c3.3,0,6,2.7,6,6c0,2.7-1.8,5.1-4.5,5.8l-0.2,0.1l-0.1,0.1L9,15.4l-1.2-1.2l-0.1-0.1L7.5,14
			C4.8,13.3,3,11,3,8.2C3,4.9,5.7,2.2,9,2.2 M7.5,7.9C6,8.3,4.1,9.1,4.1,10.6l0,0.2L4.2,11c1.1,1.6,2.8,2.6,4.8,2.6s3.7-1,4.8-2.6
			l0.1-0.2l0-0.2c0-1.5-1.8-2.4-3.4-2.7c0.8-0.5,1.4-1.4,1.4-2.4c0-1.6-1.3-2.8-2.8-2.8S6.2,4,6.2,5.5C6.2,6.5,6.7,7.4,7.5,7.9
			 M9,1.5c-3.7,0-6.8,3-6.8,6.8c0,3.1,2.1,5.8,5,6.5L9,16.5l1.7-1.7c2.9-0.8,5-3.4,5-6.5C15.8,4.5,12.7,1.5,9,1.5L9,1.5z M9,7.6
			c-1.1,0-2.1-0.9-2.1-2.1c0-1.1,0.9-2.1,2.1-2.1s2.1,0.9,2.1,2.1C11.1,6.6,10.1,7.6,9,7.6L9,7.6z M9,12.8c-1.7,0-3.2-0.9-4.1-2.2
			c0-1.4,2.8-2.1,4.1-2.1c1.4,0,4.1,0.8,4.1,2.1C12.2,12,10.7,12.8,9,12.8L9,12.8z"/>
	</g>
</g>
</svg>
