<?xml version="1.0" encoding="utf-8"?>
<!-- Generator: Adobe Illustrator 25.1.0, SVG Export Plug-In . SVG Version: 6.00 Build 0)  -->
<svg version="1.1" xmlns="http://www.w3.org/2000/svg" xmlns:xlink="http://www.w3.org/1999/xlink" x="0px" y="0px"
	 viewBox="0 0 18 18" style="enable-background:new 0 0 18 18;" xml:space="preserve">
<style type="text/css">
	.st0{display:none;}
	.st1{display:inline;fill:none;}
	.st2{display:inline;}
	.st3{fill:#FFFFFF;}
	.st4{fill:#538EE5;}
	.st5{fill:#235EA5;}
	.st6{fill:#DD3131;}
	.st7{fill:#910C0C;}
	.st8{fill:none;}
	.st9{fill:#FFFFFF;stroke:#910C0C;stroke-width:0.5;stroke-miterlimit:10;}
	.st10{fill:#FFFFFF;stroke:#910C0C;stroke-width:0.25;stroke-miterlimit:10;}
	.st11{fill:#DB0000;}
	.st12{fill:#840000;}
	.st13{display:inline;fill:#FFFFFF;}
</style>
<g id="레이어_1" class="st0">
	<path class="st1" d="M0,0h18v18H0V0z"/>
	<g class="st2">
		<circle class="st3" cx="9" cy="5.5" r="3"/>
	</g>
	<g class="st2">
		<ellipse class="st3" cx="9" cy="5.5" rx="3.3" ry="2.6"/>
	</g>
	<g class="st2">
		<ellipse class="st3" cx="9" cy="11.1" rx="4.7" ry="2.6"/>
	</g>
	<g class="st2">
		<path class="st4" d="M7.5,14.4L7.5,14.4c-2.9-0.8-4.8-3.3-4.8-6.2c0-3.5,2.9-6.4,6.4-6.4c3.5,0,6.4,2.9,6.4,6.4
			c0,2.9-1.9,5.4-4.7,6.2l-0.1,0L9,16L7.5,14.4z M9,8.1c-1.3,0-4.5,0.7-4.5,2.5l0,0.1l0.1,0.1c1,1.5,2.7,2.4,4.4,2.4
			s3.4-0.9,4.4-2.4l0.1-0.1l0-0.1C13.5,8.8,10.3,8.1,9,8.1z M9,3.1c-1.3,0-2.4,1.1-2.4,2.4S7.7,7.9,9,7.9c1.3,0,2.4-1.1,2.4-2.4
			S10.3,3.1,9,3.1z"/>
		<path class="st5" d="M9,2.2c3.3,0,6,2.7,6,6c0,2.7-1.8,5.1-4.5,5.8l-0.2,0.1l-0.1,0.1L9,15.4l-1.2-1.2l-0.1-0.1L7.5,14
			C4.8,13.3,3,11,3,8.2C3,4.9,5.7,2.2,9,2.2 M7.6,7.9C6,8.3,4.1,9.1,4.1,10.6l0,0.2L4.2,11c1.1,1.6,2.8,2.6,4.8,2.6s3.7-1,4.8-2.6
			l0.1-0.2l0-0.2c0-1.5-1.8-2.4-3.4-2.7c0.8-0.5,1.4-1.4,1.4-2.4c0-1.6-1.3-2.8-2.8-2.8S6.2,4,6.2,5.5C6.2,6.5,6.7,7.4,7.6,7.9
			 M9,1.5c-3.7,0-6.8,3-6.8,6.8c0,3.1,2.1,5.8,5,6.5L9,16.5l1.7-1.7c2.9-0.8,5-3.4,5-6.5C15.8,4.5,12.7,1.5,9,1.5L9,1.5z M9,7.6
			c-1.1,0-2.1-0.9-2.1-2.1c0-1.1,0.9-2.1,2.1-2.1s2.1,0.9,2.1,2.1C11.1,6.6,10.1,7.6,9,7.6L9,7.6z M9,12.8c-1.7,0-3.2-0.9-4.1-2.2
			c0-1.4,2.8-2.1,4.1-2.1c1.4,0,4.1,0.8,4.1,2.1C12.2,12,10.7,12.8,9,12.8L9,12.8z"/>
	</g>
</g>
<g id="레이어_3" class="st0">
	<path class="st1" d="M0,0h18v18H0V0z"/>
	<g class="st2">
		<circle class="st3" cx="9" cy="5.5" r="3"/>
	</g>
	<g class="st2">
		<ellipse class="st3" cx="9" cy="5.5" rx="3.3" ry="2.6"/>
	</g>
	<g class="st2">
		<ellipse class="st3" cx="9" cy="11.1" rx="4.7" ry="2.6"/>
	</g>
	<g class="st2">
		<path class="st4" d="M7.5,14.4L7.5,14.4c-2.9-0.8-4.8-3.3-4.8-6.2c0-3.5,2.9-6.4,6.4-6.4c3.5,0,6.4,2.9,6.4,6.4
			c0,2.9-1.9,5.4-4.7,6.2l-0.1,0L9,16L7.5,14.4z M9,8.1c-1.3,0-4.5,0.7-4.5,2.5l0,0.1l0.1,0.1c1,1.5,2.7,2.4,4.4,2.4
			s3.4-0.9,4.4-2.4l0.1-0.1l0-0.1C13.5,8.8,10.3,8.1,9,8.1z M9,3.1c-1.3,0-2.4,1.1-2.4,2.4S7.7,7.9,9,7.9c1.3,0,2.4-1.1,2.4-2.4
			S10.3,3.1,9,3.1z"/>
		<path class="st5" d="M9,2.2c3.3,0,6,2.7,6,6c0,2.7-1.8,5.1-4.5,5.8l-0.2,0.1l-0.1,0.1L9,15.4l-1.2-1.2l-0.1-0.1L7.5,14
			C4.8,13.3,3,11,3,8.2C3,4.9,5.7,2.2,9,2.2 M7.6,7.9C6,8.3,4.1,9.1,4.1,10.6l0,0.2L4.2,11c1.1,1.6,2.8,2.6,4.8,2.6s3.7-1,4.8-2.6
			l0.1-0.2l0-0.2c0-1.5-1.8-2.4-3.4-2.7c0.8-0.5,1.4-1.4,1.4-2.4c0-1.6-1.3-2.8-2.8-2.8S6.2,4,6.2,5.5C6.2,6.5,6.7,7.4,7.6,7.9
			 M9,1.5c-3.7,0-6.8,3-6.8,6.8c0,3.1,2.1,5.8,5,6.5L9,16.5l1.7-1.7c2.9-0.8,5-3.4,5-6.5C15.8,4.5,12.7,1.5,9,1.5L9,1.5z M9,7.6
			c-1.1,0-2.1-0.9-2.1-2.1c0-1.1,0.9-2.1,2.1-2.1s2.1,0.9,2.1,2.1C11.1,6.6,10.1,7.6,9,7.6L9,7.6z M9,12.8c-1.7,0-3.2-0.9-4.1-2.2
			c0-1.4,2.8-2.1,4.1-2.1c1.4,0,4.1,0.8,4.1,2.1C12.2,12,10.7,12.8,9,12.8L9,12.8z"/>
	</g>
	<g class="st2">
		<circle class="st3" cx="12.2" cy="11.2" r="1.4"/>
	</g>
	<g class="st2">
		<path class="st5" d="M13.2,13.4c-0.4,0.2-0.8,0.3-1.2,0.3c-1.6,0-2.8-1.3-2.8-2.8S10.5,8,12,8s2.8,1.3,2.8,2.8
			c0,0.4-0.1,0.8-0.3,1.2l1.6,1.6l-1.4,1.4L13.2,13.4z M12,10c-0.5,0-0.8,0.4-0.8,0.8s0.4,0.8,0.8,0.8s0.8-0.4,0.8-0.8
			S12.5,10,12,10z"/>
		<path class="st3" d="M12,8.4c1.4,0,2.4,1.1,2.4,2.4c0,0.5-0.1,0.9-0.3,1.2l1.6,1.6l-0.9,0.9L13.3,13c-0.4,0.2-0.8,0.3-1.2,0.3
			c-1.4,0-2.4-1.1-2.4-2.4C9.6,9.5,10.7,8.4,12,8.4 M12,12.1c0.7,0,1.2-0.6,1.2-1.2c0-0.7-0.6-1.2-1.2-1.2s-1.2,0.6-1.2,1.2
			C10.8,11.5,11.3,12.1,12,12.1 M12,7.7c-1.8,0-3.2,1.4-3.2,3.2c0,1.8,1.4,3.2,3.2,3.2c0.4,0,0.7-0.1,1.1-0.2l1.2,1.2l0.5,0.5
			l0.5-0.5l0.9-0.9l0.5-0.5l-0.5-0.5L15,11.9c0.1-0.3,0.2-0.7,0.2-1.1C15.2,9.1,13.8,7.7,12,7.7L12,7.7z M12,11.3
			c-0.3,0-0.5-0.2-0.5-0.5c0-0.3,0.2-0.5,0.5-0.5c0.3,0,0.5,0.2,0.5,0.5C12.5,11.1,12.3,11.3,12,11.3L12,11.3z"/>
	</g>
</g>
<g id="레이어_2" class="st0">
	<path class="st1" d="M0,0h18v18H0V0z"/>
	<g class="st2">
		<circle class="st3" cx="9" cy="5.5" r="3"/>
	</g>
	<g class="st2">
		<ellipse class="st3" cx="9" cy="5.5" rx="3.3" ry="2.6"/>
	</g>
	<g class="st2">
		<ellipse class="st3" cx="9" cy="11.1" rx="4.7" ry="2.6"/>
	</g>
	<g class="st2">
		<path class="st6" d="M7.5,14.4L7.5,14.4c-2.9-0.8-4.8-3.3-4.8-6.2c0-3.5,2.9-6.4,6.4-6.4c3.5,0,6.4,2.9,6.4,6.4
			c0,2.9-1.9,5.4-4.7,6.2l-0.1,0L9,16L7.5,14.4z M9,8.1c-1.3,0-4.5,0.7-4.5,2.5l0,0.1l0.1,0.1c1,1.5,2.7,2.4,4.4,2.4
			s3.4-0.9,4.4-2.4l0.1-0.1l0-0.1C13.5,8.8,10.3,8.1,9,8.1z M9,3.1c-1.3,0-2.4,1.1-2.4,2.4S7.7,7.9,9,7.9c1.3,0,2.4-1.1,2.4-2.4
			S10.3,3.1,9,3.1z"/>
		<path class="st7" d="M9,2.2c3.3,0,6,2.7,6,6c0,2.7-1.8,5.1-4.5,5.8l-0.2,0.1l-0.1,0.1L9,15.4l-1.2-1.2l-0.1-0.1L7.5,14
			C4.8,13.3,3,11,3,8.2C3,4.9,5.7,2.2,9,2.2 M7.5,7.9C6,8.3,4.1,9.1,4.1,10.6l0,0.2L4.2,11c1.1,1.6,2.8,2.6,4.8,2.6s3.7-1,4.8-2.6
			l0.1-0.2l0-0.2c0-1.5-1.8-2.4-3.4-2.7c0.8-0.5,1.4-1.4,1.4-2.4c0-1.6-1.3-2.8-2.8-2.8S6.2,4,6.2,5.5C6.2,6.5,6.7,7.4,7.5,7.9
			 M9,1.5c-3.7,0-6.8,3-6.8,6.8c0,3.1,2.1,5.8,5,6.5L9,16.5l1.7-1.7c2.9-0.8,5-3.4,5-6.5C15.8,4.5,12.7,1.5,9,1.5L9,1.5z M9,7.6
			c-1.1,0-2.1-0.9-2.1-2.1c0-1.1,0.9-2.1,2.1-2.1s2.1,0.9,2.1,2.1C11.1,6.6,10.1,7.6,9,7.6L9,7.6z M9,12.8c-1.7,0-3.2-0.9-4.1-2.2
			c0-1.4,2.8-2.1,4.1-2.1c1.4,0,4.1,0.8,4.1,2.1C12.2,12,10.7,12.8,9,12.8L9,12.8z"/>
	</g>
</g>
<g id="레이어_9">
	<path class="st8" d="M0,0h18v18H0V0z"/>
	<g>
		<circle class="st3" cx="9" cy="5.5" r="3"/>
	</g>
	<g>
		<path class="st6" d="M7.5,14.4L7.5,14.4c-2.9-0.8-4.8-3.3-4.8-6.2c0-3.5,2.9-6.4,6.4-6.4c3.5,0,6.4,2.9,6.4,6.4
			c0,2.9-1.9,5.4-4.7,6.2l-0.1,0L9,16L7.5,14.4z"/>
		<path class="st7" d="M9,2.2c3.3,0,6,2.7,6,6c0,2.7-1.8,5.1-4.5,5.8l-0.2,0.1l-0.1,0.1L9,15.4l-1.2-1.2l-0.1-0.1L7.5,14
			C4.8,13.3,3,11,3,8.2C3,4.9,5.7,2.2,9,2.2 M9,1.5c-3.7,0-6.8,3-6.8,6.8c0,3.1,2.1,5.8,5,6.5L9,16.5l1.7-1.7c2.9-0.8,5-3.4,5-6.5
			C15.8,4.5,12.7,1.5,9,1.5L9,1.5z"/>
	</g>
	<path class="st9" d="M12.1,9l0.5-1.2c0.1-0.2-0.1-0.4-0.3-0.4h-1.1c0.2-0.4,0.3-0.8,0.3-1.2v0c0.8-0.2,1.2-0.4,1.2-0.6
		c0-0.2-0.3-0.4-0.9-0.5c-0.3-0.1-0.5-0.3-0.6-0.5C11,4,10.8,3.6,10.6,3.3C10.4,3.1,10.1,3,9.8,3.2L9.3,3.4C9.2,3.5,9.1,3.5,9,3.5
		s-0.2,0-0.3-0.1L8.2,3.2C7.9,3,7.6,3.1,7.4,3.3C7.2,3.6,7,4,6.8,4.5C6.7,4.8,6.5,5,6.2,5C5.6,5.2,5.3,5.4,5.3,5.6
		c0,0.2,0.5,0.5,1.2,0.6v0c0,0.5,0.1,0.9,0.3,1.2H5.7c-0.2,0-0.4,0.2-0.3,0.4L5.9,9c-0.8,0.1-1.5,0.8-1.5,1.5c0,0.6,1.3,2.6,4.6,2.7
		l0,0l0,0c3.3-0.1,4.6-2.1,4.6-2.7C13.6,9.9,12.9,9.2,12.1,9z"/>
	<path class="st10" d="M10.9,6.5c0,0-0.1,0.1-0.1,0.1c-0.1,0.2-0.1,0.5-0.3,0.6c-0.2,0.2-0.9,0.4-1.2-0.5c0-0.1-0.1-0.1-0.2-0.1
		c-0.1,0-0.2,0-0.2,0.1c-0.3,0.9-1,0.7-1.2,0.5C7.4,7.1,7.3,6.8,7.3,6.6c0-0.1-0.1-0.1-0.1-0.1V6.3C7.7,6.4,8.3,6.4,9,6.4
		c0,0,0,0,0,0s0,0,0,0c0.7,0,1.3,0,1.9-0.1V6.5z"/>
	<g>
		<path class="st7" d="M13.2,13.4c-0.4,0.2-0.8,0.3-1.2,0.3c-1.6,0-2.8-1.3-2.8-2.8S10.5,8,12,8s2.8,1.3,2.8,2.8
			c0,0.4-0.1,0.8-0.3,1.2l1.6,1.6l-1.4,1.4L13.2,13.4z M12,10c-0.5,0-0.8,0.4-0.8,0.8s0.4,0.8,0.8,0.8s0.8-0.4,0.8-0.8
			S12.5,10,12,10z"/>
		<path class="st3" d="M12,8.4c1.4,0,2.4,1.1,2.4,2.4c0,0.5-0.1,0.9-0.3,1.2l1.6,1.6l-0.9,0.9L13.3,13c-0.4,0.2-0.8,0.3-1.2,0.3
			c-1.4,0-2.4-1.1-2.4-2.4C9.6,9.5,10.7,8.4,12,8.4 M12,12.1c0.7,0,1.2-0.6,1.2-1.2c0-0.7-0.6-1.2-1.2-1.2s-1.2,0.6-1.2,1.2
			C10.8,11.5,11.3,12.1,12,12.1 M12,7.7c-1.8,0-3.2,1.4-3.2,3.2c0,1.8,1.4,3.2,3.2,3.2c0.4,0,0.7-0.1,1.1-0.2l1.2,1.2l0.5,0.5
			l0.5-0.5l0.9-0.9l0.5-0.5l-0.5-0.5L15,11.9c0.1-0.3,0.2-0.7,0.2-1.1C15.2,9.1,13.8,7.7,12,7.7L12,7.7z M12,11.3
			c-0.3,0-0.5-0.2-0.5-0.5c0-0.3,0.2-0.5,0.5-0.5c0.3,0,0.5,0.2,0.5,0.5C12.5,11.1,12.3,11.3,12,11.3L12,11.3z"/>
	</g>
</g>
<g id="레이어_4" class="st0">
	<path class="st1" d="M0,0h18v18H0V0z"/>
	<g class="st2">
		<circle class="st3" cx="9" cy="5.5" r="3"/>
	</g>
	<g class="st2">
		<ellipse class="st3" cx="9" cy="5.5" rx="3.3" ry="2.6"/>
	</g>
	<g class="st2">
		<ellipse class="st3" cx="9" cy="11.1" rx="4.7" ry="2.6"/>
	</g>
	<g class="st2">
		<path class="st6" d="M7.5,14.4L7.5,14.4c-2.9-0.8-4.8-3.3-4.8-6.2c0-3.5,2.9-6.4,6.4-6.4c3.5,0,6.4,2.9,6.4,6.4
			c0,2.9-1.9,5.4-4.7,6.2l-0.1,0L9,16L7.5,14.4z M9,8.1c-1.3,0-4.5,0.7-4.5,2.5l0,0.1l0.1,0.1c1,1.5,2.7,2.4,4.4,2.4
			s3.4-0.9,4.4-2.4l0.1-0.1l0-0.1C13.5,8.8,10.3,8.1,9,8.1z M9,3.1c-1.3,0-2.4,1.1-2.4,2.4S7.7,7.9,9,7.9c1.3,0,2.4-1.1,2.4-2.4
			S10.3,3.1,9,3.1z"/>
		<path class="st7" d="M9,2.2c3.3,0,6,2.7,6,6c0,2.7-1.8,5.1-4.5,5.8l-0.2,0.1l-0.1,0.1L9,15.4l-1.2-1.2l-0.1-0.1L7.5,14
			C4.8,13.3,3,11,3,8.2C3,4.9,5.7,2.2,9,2.2 M7.5,7.9C6,8.3,4.1,9.1,4.1,10.6l0,0.2L4.2,11c1.1,1.6,2.8,2.6,4.8,2.6s3.7-1,4.8-2.6
			l0.1-0.2l0-0.2c0-1.5-1.8-2.4-3.4-2.7c0.8-0.5,1.4-1.4,1.4-2.4c0-1.6-1.3-2.8-2.8-2.8S6.2,4,6.2,5.5C6.2,6.5,6.7,7.4,7.5,7.9
			 M9,1.5c-3.7,0-6.8,3-6.8,6.8c0,3.1,2.1,5.8,5,6.5L9,16.5l1.7-1.7c2.9-0.8,5-3.4,5-6.5C15.8,4.5,12.7,1.5,9,1.5L9,1.5z M9,7.6
			c-1.1,0-2.1-0.9-2.1-2.1c0-1.1,0.9-2.1,2.1-2.1s2.1,0.9,2.1,2.1C11.1,6.6,10.1,7.6,9,7.6L9,7.6z M9,12.8c-1.7,0-3.2-0.9-4.1-2.2
			c0-1.4,2.8-2.1,4.1-2.1c1.4,0,4.1,0.8,4.1,2.1C12.2,12,10.7,12.8,9,12.8L9,12.8z"/>
	</g>
	<g class="st2">
		<circle class="st3" cx="12" cy="10.9" r="1.5"/>
	</g>
	<g class="st2">
		<path class="st7" d="M13.2,13.4c-0.4,0.2-0.8,0.3-1.2,0.3c-1.6,0-2.8-1.3-2.8-2.8S10.5,8,12,8s2.8,1.3,2.8,2.8
			c0,0.4-0.1,0.8-0.3,1.2l1.6,1.6l-1.4,1.4L13.2,13.4z M12,10c-0.5,0-0.8,0.4-0.8,0.8s0.4,0.8,0.8,0.8s0.8-0.4,0.8-0.8
			S12.5,10,12,10z"/>
		<path class="st3" d="M12,8.4c1.4,0,2.4,1.1,2.4,2.4c0,0.5-0.1,0.9-0.3,1.2l1.6,1.6l-0.9,0.9L13.3,13c-0.4,0.2-0.8,0.3-1.2,0.3
			c-1.4,0-2.4-1.1-2.4-2.4C9.6,9.5,10.7,8.4,12,8.4 M12,12.1c0.7,0,1.2-0.6,1.2-1.2c0-0.7-0.6-1.2-1.2-1.2s-1.2,0.6-1.2,1.2
			C10.8,11.5,11.3,12.1,12,12.1 M12,7.7c-1.8,0-3.2,1.4-3.2,3.2c0,1.8,1.4,3.2,3.2,3.2c0.4,0,0.7-0.1,1.1-0.2l1.2,1.2l0.5,0.5
			l0.5-0.5l0.9-0.9l0.5-0.5l-0.5-0.5L15,11.9c0.1-0.3,0.2-0.7,0.2-1.1C15.2,9.1,13.8,7.7,12,7.7L12,7.7z M12,11.3
			c-0.3,0-0.5-0.2-0.5-0.5c0-0.3,0.2-0.5,0.5-0.5c0.3,0,0.5,0.2,0.5,0.5C12.5,11.1,12.3,11.3,12,11.3L12,11.3z"/>
	</g>
</g>
<g id="레이어_5" class="st0">
	<g class="st2">
		<path class="st11" d="M7.5,14.4L7.5,14.4c-2.9-0.8-4.8-3.3-4.8-6.2c0-3.5,2.9-6.4,6.4-6.4c3.5,0,6.4,2.9,6.4,6.4
			c0,2.9-1.9,5.4-4.7,6.2l-0.1,0L9,16L7.5,14.4z"/>
		<path class="st12" d="M9,2.2c3.3,0,6,2.7,6,6c0,2.7-1.8,5.1-4.5,5.8l-0.2,0.1l-0.1,0.1L9,15.4l-1.2-1.2l-0.1-0.1L7.5,14
			C4.8,13.3,3,11,3,8.2C3,4.9,5.7,2.2,9,2.2 M9,1.5c-3.7,0-6.8,3-6.8,6.8c0,3.1,2.1,5.8,5,6.5L9,16.5l1.7-1.7c2.9-0.8,5-3.4,5-6.5
			C15.8,4.5,12.7,1.5,9,1.5L9,1.5z"/>
	</g>
	<g class="st2">
		<path class="st3" d="M12.1,8.5c-0.7-1.7-3-1.8-2.4-4.3c0-0.2-0.2-0.3-0.3-0.2C7.9,4.9,6.8,6.7,7.7,9.1c0.1,0.2-0.2,0.4-0.3,0.2
			c-0.8-0.6-0.8-1.4-0.8-2c0-0.2-0.3-0.3-0.4-0.1C5.9,7.6,5.6,8.3,5.6,9.4c0.2,2.3,2.1,3.1,2.9,3.2c1,0.1,2.1-0.1,2.9-0.8
			C12.3,11,12.6,9.7,12.1,8.5z M8.2,10.7c0.6-0.1,0.9-0.6,1-1c0.1-0.6-0.4-1.2,0-2.1c0.1,0.8,1.4,1.3,1.4,2.1
			C10.6,10.7,9.5,11.7,8.2,10.7z"/>
	</g>
</g>
<g id="레이어_6" class="st0">
	<g class="st2">
		<path class="st11" d="M7.5,14.4L7.5,14.4c-2.9-0.8-4.8-3.3-4.8-6.2c0-3.5,2.9-6.4,6.4-6.4c3.5,0,6.4,2.9,6.4,6.4
			c0,2.9-1.9,5.4-4.7,6.2l-0.1,0L9,16L7.5,14.4z"/>
		<path class="st12" d="M9,2.2c3.3,0,6,2.7,6,6c0,2.7-1.8,5.1-4.5,5.8l-0.2,0.1l-0.1,0.1L9,15.4l-1.2-1.2l-0.1-0.1L7.5,14
			C4.8,13.3,3,11,3,8.2C3,4.9,5.7,2.2,9,2.2 M9,1.5c-3.7,0-6.8,3-6.8,6.8c0,3.1,2.1,5.8,5,6.5L9,16.5l1.7-1.7c2.9-0.8,5-3.4,5-6.5
			C15.8,4.5,12.7,1.5,9,1.5L9,1.5z"/>
	</g>
	<g class="st2">
		<path class="st3" d="M4.8,11.1C4.8,11.1,4.8,11.1,4.8,11.1l8.4,0c0,0,0,0,0,0L9,3.9c0,0,0,0,0,0L4.8,11.1z M9.4,10
			C9.4,10,9.4,10,9.4,10l-0.8,0c0,0,0,0,0,0V9.2c0,0,0,0,0,0h0.7c0,0,0,0,0,0V10z M9.4,8.8C9.4,8.8,9.4,8.8,9.4,8.8l-0.8,0
			c0,0,0,0,0,0V6.4c0,0,0,0,0,0h0.7c0,0,0,0,0,0V8.8z"/>
	</g>
</g>
<g id="레이어_7" class="st0">
	<g class="st2">
		<path class="st11" d="M7.5,14.4L7.5,14.4c-2.9-0.8-4.8-3.3-4.8-6.2c0-3.5,2.9-6.4,6.4-6.4c3.5,0,6.4,2.9,6.4,6.4
			c0,2.9-1.9,5.4-4.7,6.2l-0.1,0L9,16L7.5,14.4z"/>
		<path class="st12" d="M9,2.2c3.3,0,6,2.7,6,6c0,2.7-1.8,5.1-4.5,5.8l-0.2,0.1l-0.1,0.1L9,15.4l-1.2-1.2l-0.1-0.1L7.5,14
			C4.8,13.3,3,11,3,8.2C3,4.9,5.7,2.2,9,2.2 M9,1.5c-3.7,0-6.8,3-6.8,6.8c0,3.1,2.1,5.8,5,6.5L9,16.5l1.7-1.7c2.9-0.8,5-3.4,5-6.5
			C15.8,4.5,12.7,1.5,9,1.5L9,1.5z"/>
	</g>
	<path class="st13" d="M12.9,7.6c-0.2,0-0.3,0.1-0.3,0.3H12c-0.1-0.6-0.3-1.1-0.6-1.6l0.5-0.5l0,0c0.1,0.1,0.3,0.1,0.5,0
		c0.1-0.1,0.1-0.3,0-0.5L11.8,5c-0.1-0.1-0.3-0.1-0.5,0c-0.1,0.1-0.1,0.3,0,0.4l-0.5,0.5c-0.4-0.3-1-0.6-1.5-0.6V4.6h0
		c0.2,0,0.3-0.1,0.3-0.3C9.6,4.1,9.5,4,9.3,4H8.7C8.5,4,8.4,4.1,8.4,4.3c0,0.2,0.1,0.3,0.3,0.3v0.7C8.1,5.3,7.6,5.6,7.1,5.9L6.7,5.4
		l0,0c0.1-0.1,0.1-0.3,0-0.5C6.5,4.9,6.3,4.9,6.2,5L5.8,5.4c-0.1,0.1-0.1,0.3,0,0.5C5.9,6,6.1,6,6.2,5.9l0.5,0.5
		C6.3,6.8,6.1,7.3,6,7.9H5.4c0-0.2-0.1-0.3-0.3-0.3c-0.2,0-0.3,0.1-0.3,0.3v0.6c0,0.2,0.1,0.3,0.3,0.3c0.2,0,0.3-0.1,0.3-0.3H6
		c0.1,0.6,0.3,1.1,0.6,1.5l-0.5,0.5c-0.1-0.1-0.3-0.1-0.4,0s-0.1,0.3,0,0.5l0.5,0.5c0.1,0.1,0.3,0.1,0.5,0c0.1-0.1,0.1-0.3,0-0.5
		l0,0l0.5-0.5c0.4,0.3,1,0.6,1.5,0.6v0.7c-0.2,0-0.3,0.1-0.3,0.3s0.1,0.3,0.3,0.3h0.6c0.2,0,0.3-0.1,0.3-0.3s-0.1-0.3-0.3-0.3h0
		v-0.7c0.6-0.1,1.1-0.3,1.5-0.6l0.5,0.5c-0.1,0.1-0.1,0.3,0,0.4s0.3,0.1,0.5,0l0.5-0.5c0.1-0.1,0.1-0.3,0-0.5
		c-0.1-0.1-0.3-0.1-0.5,0l0,0l-0.5-0.5c0.3-0.4,0.6-1,0.6-1.6h0.7c0,0.2,0.1,0.3,0.3,0.3s0.3-0.1,0.3-0.3V7.9
		C13.3,7.7,13.1,7.6,12.9,7.6z M9.7,6.5c0.2,0,0.4,0.2,0.4,0.4c0,0.2-0.2,0.4-0.4,0.4S9.3,7.2,9.3,6.9C9.3,6.7,9.5,6.5,9.7,6.5z
		 M9,8.6c-0.2,0-0.4-0.2-0.4-0.4S8.8,7.8,9,7.8S9.4,8,9.4,8.2S9.2,8.6,9,8.6z M8.3,6.5c0.2,0,0.4,0.2,0.4,0.4c0,0.2-0.2,0.4-0.4,0.4
		S7.8,7.2,7.8,6.9C7.8,6.7,8,6.5,8.3,6.5z M7.5,8.6c-0.2,0-0.4-0.2-0.4-0.4s0.2-0.4,0.4-0.4c0.2,0,0.4,0.2,0.4,0.4S7.7,8.6,7.5,8.6z
		 M8.3,9.9C8,9.9,7.8,9.7,7.8,9.5c0-0.2,0.2-0.4,0.4-0.4s0.4,0.2,0.4,0.4C8.7,9.7,8.5,9.9,8.3,9.9z M9.7,9.9c-0.2,0-0.4-0.2-0.4-0.4
		c0-0.2,0.2-0.4,0.4-0.4s0.4,0.2,0.4,0.4C10.2,9.7,10,9.9,9.7,9.9z M10.1,8.2c0-0.2,0.2-0.4,0.4-0.4s0.4,0.2,0.4,0.4
		s-0.2,0.4-0.4,0.4C10.3,8.6,10.1,8.4,10.1,8.2z"/>
</g>
<g id="레이어_8" class="st0">
	<g class="st2">
		<path class="st11" d="M7.5,14.4L7.5,14.4c-2.9-0.8-4.8-3.3-4.8-6.2c0-3.5,2.9-6.4,6.4-6.4c3.5,0,6.4,2.9,6.4,6.4
			c0,2.9-1.9,5.4-4.7,6.2l-0.1,0L9,16L7.5,14.4z"/>
		<path class="st12" d="M9,2.2c3.3,0,6,2.7,6,6c0,2.7-1.8,5.1-4.5,5.8l-0.2,0.1l-0.1,0.1L9,15.4l-1.2-1.2l-0.1-0.1L7.5,14
			C4.8,13.3,3,11,3,8.2C3,4.9,5.7,2.2,9,2.2 M9,1.5c-3.7,0-6.8,3-6.8,6.8c0,3.1,2.1,5.8,5,6.5L9,16.5l1.7-1.7c2.9-0.8,5-3.4,5-6.5
			C15.8,4.5,12.7,1.5,9,1.5L9,1.5z"/>
	</g>
	<path class="st13" d="M11.8,4.6H6.2c-0.4,0-0.8,0.4-0.8,0.8l0,5.7c0,0.4,0.4,0.8,0.8,0.8h5.7c0.4,0,0.8-0.4,0.8-0.8V5.4
		C12.7,4.9,12.3,4.6,11.8,4.6z M11.4,9H9.8v1.6H8.2V9H6.6V7.4h1.6V5.8h1.6v1.6h1.6V9z"/>
</g>
</svg>
