<svg xmlns="http://www.w3.org/2000/svg" width="24" height="24" fill="none" viewBox="0 0 24 24">
    <circle cx="12" cy="12" r="11.75" fill="#A68F7E" stroke="#fff" stroke-width=".5"/>
    <path fill="#fff" d="M15 7l-.3-2.031c-.15-.313-.3-.469-.6-.469H9.9c-.3 0-.6.156-.6.469L9 7c.9-.625 1.95-.938 3-.938s2.1.47 3 .938zM14.7 19.031L15 17c-.9.469-1.95.781-3 .781S9.9 17.47 9 17l.3 2.031c0 .157.15.313.15.313.15.156.3.156.45.156h4.2c.3 0 .45-.156.6-.469zM16.5 12c0-1.25-.45-2.5-1.35-3.281-.9-.781-1.95-1.406-3.15-1.406-2.55 0-4.5 2.03-4.5 4.687 0 1.25.45 2.5 1.35 3.281.9.781 1.95 1.406 3.15 1.406 2.4 0 4.5-2.03 4.5-4.687zm-3.45.625H12c-.15 0-.3 0-.45-.156-.15-.156-.15-.313-.15-.469v-1.875c0-.313.3-.625.6-.625s.6.313.6.625v1.406h.45c.3 0 .6.313.6.625 0 .156-.3.469-.6.469z"/>
</svg>
