<svg xmlns="http://www.w3.org/2000/svg" width="25" height="24" fill="none" viewBox="0 0 25 24">
    <g clip-path="url(#clip0)">
        <circle cx="12.698" cy="12" r="11.75" fill="#A68F7E" stroke="#fff" stroke-width=".5"/>
        <path fill="#fff" d="M19.98 11.66c-1.888-2.183-4.503-3.41-7.264-3.41-2.76 0-5.52 1.227-7.409 3.41-.145.136-.145.544 0 .68 1.889 2.183 4.65 3.41 7.41 3.41s5.375-1.227 7.263-3.41c.29-.136.29-.544 0-.68zm-7.264 3.408c-1.888 0-3.341-1.364-3.341-3s1.453-3 3.196-3c1.744 0 3.196 1.364 3.196 3s-1.307 3-3.05 3z"/>
        <path fill="#fff" d="M12.716 13.977c1.124 0 2.034-.854 2.034-1.909 0-1.054-.91-1.909-2.034-1.909-1.123 0-2.034.855-2.034 1.91 0 1.053.911 1.908 2.034 1.908z"/>
    </g>
    <defs>
        <clipPath id="clip0">
            <path fill="#fff" d="M0 0H24V24H0z" transform="translate(.698)"/>
        </clipPath>
    </defs>
</svg>
