<svg xmlns="http://www.w3.org/2000/svg" width="25" height="24" fill="none" viewBox="0 0 25 24">
    <g clip-path="url(#clip0)">
        <circle cx="12.698" cy="12" r="11.75" fill="#F06D6D" stroke="#fff" stroke-width=".5"/>
        <path fill="#fff" d="M17.76 9.535c-.133 1.067-.667 2.668-1.6 3.469-.667.533-1.201.8-1.868.8s-1.2-.267-1.734-.8c-.4-.534-.668-1.067-.668-1.601 0-.667.4-1.334.934-1.868.934-.8 2.402-1.334 3.336-1.334h.133c-.4-.4-1.2-.667-2.268-.667-.4 0-.8 0-1.2.133h-.267c-1.068.667-3.069 2.135-3.069 3.202 0 .134-.133.267-.267.267-.133 0-.266-.133-.266-.267 0-.934.8-1.868 1.734-2.535-2.402 1.068-4.536 2.802-4.536 4.136 0 .4.133.8.4 1.067.934.934 3.202 1.068 5.87 1.068s5.07-.134 5.87-1.201c.267-.267.4-.534.4-.934 0-.934-.266-2.001-.933-2.935z"/>
        <path fill="#fff" d="M18.561 14.071c-.667.534-1.868.934-3.602 1.067h-1.201-3.468c-1.868-.133-3.202-.4-3.87-.934-.933.134-1.467.4-1.467.667 0 .668 3.469 1.335 7.738 1.335 4.27 0 7.738-.534 7.738-1.335.133-.266-.667-.667-1.868-.8zM19.361 7.4c-.133-.133-.266-.133-.4-.133 0-.133 0-.4-.133-.4-.267-.267-.534-.267-.8-.133-.267.133-.267.533 0 .8h.133l-.934.8-.667.534c-.667-.133-2.401.267-3.202 1.067-1.2 1.068-.934 2.002-.267 2.668.667.668 1.601.934 2.668 0 .934-.8 1.468-2.4 1.334-3.201l1.335-1.334V8.2c.133.267.533.267.8 0s.267-.534.133-.8z"/>
    </g>
    <defs>
        <clipPath id="clip0">
            <path fill="#fff" d="M0 0H24V24H0z" transform="translate(.698)"/>
        </clipPath>
    </defs>
</svg>
