<svg xmlns="http://www.w3.org/2000/svg" width="25" height="24" fill="none" viewBox="0 0 25 24">
    <g clip-path="url(#clip0)">
        <circle cx="12.698" cy="12" r="11.75" fill="#F06D6D" stroke="#fff" stroke-width=".5"/>
        <path fill="#fff" d="M13.555 4.929c0-.286.156-.429.468-.429.312 0 .468.143.468.429v3.285h1.09V4.93c0-.286.156-.429.468-.429.312 0 .467.143.467.429v3.285h1.091V4.93c0-.286.312-.429.624-.429.311 0 .467.143.467.429v5.714c0 .714-.623 1.428-1.558 1.428h-.156l.623 6.143c0 .715-.467 1.286-1.246 1.429-.78 0-1.403-.429-1.559-1.143v-.143l.623-6.143h-.311c-.78 0-1.559-.571-1.559-1.428V4.929zm-1.714 3.285c0-2-1.09-3.714-2.65-3.714-1.558 0-2.493 1.714-2.493 3.714 0 1.715.78 3 1.715 3.572l-.624 6.428c0 .715.468 1.286 1.247 1.429.78 0 1.402-.429 1.558-1.143v-.143l-.467-6.571c.935-.429 1.714-1.857 1.714-3.572z"/>
    </g>
    <defs>
        <clipPath id="clip0">
            <path fill="#fff" d="M0 0H24V24H0z" transform="translate(.698)"/>
        </clipPath>
    </defs>
</svg>
