<svg xmlns="http://www.w3.org/2000/svg" width="25" height="24" fill="none" viewBox="0 0 25 24">
    <g clip-path="url(#clip0)">
        <circle cx="12.698" cy="12" r="11.75" fill="#F06D6D" stroke="#fff" stroke-width=".5"/>
        <path fill="#fff" d="M7.131 8.752c-1.856.926-2.856 2.2-2.856 3.472 0 2.315 2.999 2.778 8.568 2.778 5.57 0 8.569-.463 8.569-2.778 0-1.504-1.286-2.893-3.428-3.82L17.7 9.447c-.143.463-.857.81-1.428.695-.714-.116-1.143-.695-.857-1.273l.285-1.042c-.428-.116-1-.231-1.428-.231l-.857 2.43c-.142.463-.856.81-1.428.695-.713-.232-1.142-.695-1-1.274l.715-1.851c-.571 0-1.143.115-1.714.231l-.571 1.736c-.143.579-.857.926-1.428.695-.714-.116-1.143-.695-.857-1.158v-.347z"/>
    </g>
    <defs>
        <clipPath id="clip0">
            <path fill="#fff" d="M0 0H24V24H0z" transform="translate(.698)"/>
        </clipPath>
    </defs>
</svg>
