<svg xmlns="http://www.w3.org/2000/svg" width="25" height="24" fill="none" viewBox="0 0 25 24">
    <g clip-path="url(#clip0)">
        <circle cx="12.698" cy="12" r="11.75" fill="#F06D6D" stroke="#fff" stroke-width=".5"/>
        <path fill="#fff" d="M12.248 9.3c-.15-.45 0-.75 0-.9.15-.15.15-.3.15-.45h7.65L19.898 6l-14.4 1.5v.45h1.5c-.3.45-.45 1.05-.15 1.8.3.75.3 1.2 0 1.5 0 0-.15.15-.15.3h-1.5c0 2.55 1.5 4.95 3.9 6v1.8h5.7v-1.8c2.25-1.05 3.9-3.45 3.9-6.15h-6.3c.45-.75.15-1.5-.15-2.1zm-4.2 0c-.15-.45 0-.75 0-.9.15-.15.15-.3.15-.45h.9c-.15.45-.3 1.05 0 1.8v.15c.3.75.3 1.2 0 1.5 0 0-.15.15-.15.3h-.9c.45-1.05.15-1.8 0-2.4zm2.1 0c0-.15-.15-.3-.15-.45 0-.3.15-.45.15-.45.15-.15.15-.3.15-.45h.9c-.15.45-.3 1.05 0 1.8s.3 1.2 0 1.5c0 0-.15.15-.15.3h-.75c.3-.9.15-1.65-.15-2.25z"/>
        <path fill="#fff" d="M12.848 8.85V9c0 .15.15.45.3.6l6.9.75.15-1.95h-7.2c0 .15 0 .3-.15.45zM5.498 8.4V9h.75v-.6h-.75z"/>
    </g>
    <defs>
        <clipPath id="clip0">
            <path fill="#fff" d="M0 0H24V24H0z" transform="translate(.698)"/>
        </clipPath>
    </defs>
</svg>
