<svg xmlns="http://www.w3.org/2000/svg" width="25" height="24" fill="none" viewBox="0 0 25 24">
    <g clip-path="url(#clip0)">
        <circle cx="12.698" cy="12" r="11.75" fill="#F06D6D" stroke="#fff" stroke-width=".5"/>
        <path fill="#fff" fill-rule="evenodd" d="M12.947 8.18l.257.514-.9.385-.256-.513.899-.385zm-1.67.643l.643.642-.514.513-.642-.77.514-.385zm2.184.256l.898.257-.128.514-.899-.257.128-.514zm-5.265 1.156h8.988c-.128-.642-.385-1.027-.77-1.412l3.081-2.44-.642-.642-3.21 2.568c-.128-.128-.385-.257-.642-.257L16.8 4.33l-.77-.385-1.927 3.852c-.898-.77-2.31-.642-3.21.256-1.283-.128-2.439.9-2.696 2.183zm-.513 1.027c0 2.568 1.926 4.75 4.494 5.008v1.669H9.609v.899h5.906v-.9h-2.568V16.27c2.568-.257 4.494-2.44 4.494-5.008v-.642H7.683v.642z" clip-rule="evenodd"/>
    </g>
    <defs>
        <clipPath id="clip0">
            <path fill="#fff" d="M0 0H24V24H0z" transform="translate(.698)"/>
        </clipPath>
    </defs>
</svg>
