<svg xmlns="http://www.w3.org/2000/svg" width="25" height="24" fill="none" viewBox="0 0 25 24">
    <g clip-path="url(#clip0)">
        <circle cx="12.698" cy="12" r="11.75" fill="#8F7BE0" stroke="#fff" stroke-width=".5"/>
        <path fill="#fff" d="M19.565 10.051L17.419 6.85H7.977l-2.145 3.201c0 .696.572 1.392 1.43 1.392s1.43-.556 1.43-1.392c0 .696.573 1.392 1.431 1.392.859 0 1.43-.556 1.43-1.392 0 .696.573 1.392 1.431 1.392.859 0 1.43-.556 1.43-1.392 0 .696.573 1.392 1.431 1.392.716 0 1.431-.556 1.431-1.392 0 .696.572 1.392 1.43 1.392.859 0 .859-.556.859-1.392zM18.134 12.974c-.429 0-.858-.139-1.144-.278v2.923H8.407v-2.923c-.43.14-.716.278-1.145.278h-.43v4.176h11.732v-4.176h-.43z"/>
    </g>
    <defs>
        <clipPath id="clip0">
            <path fill="#fff" d="M0 0H24V24H0z" transform="translate(.698)"/>
        </clipPath>
    </defs>
</svg>
